<svg width="244" height="61" viewBox="0 0 244 61" fill="none" xmlns="http://www.w3.org/2000/svg">
<path d="M0 0H243.81V61H0V0Z" fill="#374151"/>
<path d="M36.8594 41H30.875L27.0156 33.7031C26.8698 33.4323 26.7188 32.9323 26.5625 32.2031H26.5C26.4271 32.5469 26.2552 33.0677 25.9844 33.7656L22.1094 41H16.0938L23.2344 29.7969L16.7031 18.5938H22.8438L26.0469 25.3125C26.2969 25.8438 26.5208 26.474 26.7188 27.2031H26.7812C26.9062 26.7656 27.1406 26.1146 27.4844 25.25L31.0469 18.5938H36.6719L29.9531 29.7031L36.8594 41ZM51.1719 40.4219C50.0573 41.0677 48.4479 41.3906 46.3438 41.3906C43.8854 41.3906 41.8958 40.6458 40.375 39.1562C38.8542 37.6667 38.0938 35.7448 38.0938 33.3906C38.0938 30.6719 38.9062 28.5312 40.5312 26.9688C42.1667 25.3958 44.349 24.6094 47.0781 24.6094C48.9635 24.6094 50.3281 24.8594 51.1719 25.3594V29.5469C50.1406 28.776 48.9896 28.3906 47.7188 28.3906C46.3021 28.3906 45.1771 28.8073 44.3438 29.6406C43.5208 30.4635 43.1094 31.6042 43.1094 33.0625C43.1094 34.4792 43.5052 35.5938 44.2969 36.4062C45.0885 37.2083 46.1771 37.6094 47.5625 37.6094C48.7917 37.6094 49.9948 37.224 51.1719 36.4531V40.4219ZM56.9219 22.4688C56.0885 22.4688 55.4062 22.224 54.875 21.7344C54.3438 21.2344 54.0781 20.625 54.0781 19.9062C54.0781 19.1667 54.3438 18.5625 54.875 18.0938C55.4062 17.625 56.0885 17.3906 56.9219 17.3906C57.7656 17.3906 58.4479 17.625 58.9688 18.0938C59.5 18.5625 59.7656 19.1667 59.7656 19.9062C59.7656 20.6562 59.5 21.2708 58.9688 21.75C58.4479 22.2292 57.7656 22.4688 56.9219 22.4688ZM59.3594 41H54.4219V25H59.3594V41ZM73.1875 40.8125C72.4583 41.1979 71.3594 41.3906 69.8906 41.3906C66.4115 41.3906 64.6719 39.5833 64.6719 35.9688V28.6406H62.0781V25H64.6719V21.5469L69.5938 20.1406V25H73.1875V28.6406H69.5938V35.1094C69.5938 36.776 70.2552 37.6094 71.5781 37.6094C72.099 37.6094 72.6354 37.4583 73.1875 37.1562V40.8125ZM89.9062 41H76.4688V18.5938H89.3906V22.7031H81.5156V27.6875H88.8438V31.7812H81.5156V36.9062H89.9062V41ZM108.672 41H103.734V38.7969H103.672C102.547 40.526 100.896 41.3906 98.7188 41.3906C96.7188 41.3906 95.1094 40.6875 93.8906 39.2812C92.6719 37.8646 92.0625 35.8906 92.0625 33.3594C92.0625 30.7135 92.7344 28.5938 94.0781 27C95.4219 25.4062 97.1823 24.6094 99.3594 24.6094C101.422 24.6094 102.859 25.349 103.672 26.8281H103.734V17.3125H108.672V41ZM103.828 33.2188V32.0156C103.828 30.974 103.526 30.1094 102.922 29.4219C102.318 28.7344 101.531 28.3906 100.562 28.3906C99.4688 28.3906 98.6146 28.8229 98 29.6875C97.3854 30.5417 97.0781 31.7188 97.0781 33.2188C97.0781 34.625 97.375 35.7083 97.9688 36.4688C98.5625 37.2292 99.3854 37.6094 100.438 37.6094C101.438 37.6094 102.25 37.2083 102.875 36.4062C103.51 35.6042 103.828 34.5417 103.828 33.2188ZM128.031 41H123.109V38.5625H123.031C121.812 40.4479 120.182 41.3906 118.141 41.3906C114.432 41.3906 112.578 39.1458 112.578 34.6562V25H117.5V34.2188C117.5 36.4792 118.396 37.6094 120.188 37.6094C121.073 37.6094 121.781 37.3021 122.312 36.6875C122.844 36.0625 123.109 35.2188 123.109 34.1562V25H128.031V41ZM144.328 40.4219C143.214 41.0677 141.604 41.3906 139.5 41.3906C137.042 41.3906 135.052 40.6458 133.531 39.1562C132.01 37.6667 131.25 35.7448 131.25 33.3906C131.25 30.6719 132.062 28.5312 133.688 26.9688C135.323 25.3958 137.505 24.6094 140.234 24.6094C142.12 24.6094 143.484 24.8594 144.328 25.3594V29.5469C143.297 28.776 142.146 28.3906 140.875 28.3906C139.458 28.3906 138.333 28.8073 137.5 29.6406C136.677 30.4635 136.266 31.6042 136.266 33.0625C136.266 34.4792 136.661 35.5938 137.453 36.4062C138.245 37.2083 139.333 37.6094 140.719 37.6094C141.948 37.6094 143.151 37.224 144.328 36.4531V40.4219ZM160.891 41H156.219V38.7031H156.156C155.083 40.4948 153.495 41.3906 151.391 41.3906C149.839 41.3906 148.615 40.9531 147.719 40.0781C146.833 39.1927 146.391 38.0156 146.391 36.5469C146.391 33.4427 148.229 31.651 151.906 31.1719L156.25 30.5938C156.25 28.8438 155.302 27.9688 153.406 27.9688C151.5 27.9688 149.688 28.5365 147.969 29.6719V25.9531C148.656 25.599 149.594 25.2865 150.781 25.0156C151.979 24.7448 153.068 24.6094 154.047 24.6094C158.609 24.6094 160.891 26.8854 160.891 31.4375V41ZM156.25 34.5V33.4219L153.344 33.7969C151.74 34.0052 150.938 34.7292 150.938 35.9688C150.938 36.5312 151.13 36.9948 151.516 37.3594C151.911 37.7135 152.443 37.8906 153.109 37.8906C154.036 37.8906 154.792 37.5729 155.375 36.9375C155.958 36.2917 156.25 35.4792 156.25 34.5ZM174.469 40.8125C173.74 41.1979 172.641 41.3906 171.172 41.3906C167.693 41.3906 165.953 39.5833 165.953 35.9688V28.6406H163.359V25H165.953V21.5469L170.875 20.1406V25H174.469V28.6406H170.875V35.1094C170.875 36.776 171.536 37.6094 172.859 37.6094C173.38 37.6094 173.917 37.4583 174.469 37.1562V40.8125ZM179.766 22.4688C178.932 22.4688 178.25 22.224 177.719 21.7344C177.188 21.2344 176.922 20.625 176.922 19.9062C176.922 19.1667 177.188 18.5625 177.719 18.0938C178.25 17.625 178.932 17.3906 179.766 17.3906C180.609 17.3906 181.292 17.625 181.812 18.0938C182.344 18.5625 182.609 19.1667 182.609 19.9062C182.609 20.6562 182.344 21.2708 181.812 21.75C181.292 22.2292 180.609 22.4688 179.766 22.4688ZM182.203 41H177.266V25H182.203V41ZM193.984 41.3906C191.318 41.3906 189.219 40.6458 187.688 39.1562C186.167 37.6562 185.406 35.625 185.406 33.0625C185.406 30.4167 186.198 28.349 187.781 26.8594C189.365 25.3594 191.505 24.6094 194.203 24.6094C196.859 24.6094 198.943 25.3594 200.453 26.8594C201.964 28.349 202.719 30.3229 202.719 32.7812C202.719 35.4375 201.938 37.5365 200.375 39.0781C198.823 40.6198 196.693 41.3906 193.984 41.3906ZM194.109 28.3906C192.943 28.3906 192.036 28.7917 191.391 29.5938C190.745 30.3958 190.422 31.5312 190.422 33C190.422 36.0729 191.661 37.6094 194.141 37.6094C196.505 37.6094 197.688 36.0312 197.688 32.875C197.688 29.8854 196.495 28.3906 194.109 28.3906ZM221.375 41H216.453V32.1094C216.453 29.6302 215.568 28.3906 213.797 28.3906C212.943 28.3906 212.24 28.7188 211.688 29.375C211.135 30.0312 210.859 30.8646 210.859 31.875V41H205.922V25H210.859V27.5312H210.922C212.099 25.5833 213.812 24.6094 216.062 24.6094C219.604 24.6094 221.375 26.8073 221.375 31.2031V41Z" fill="white"/>
</svg>
